<svg width="828" height="95" viewBox="0 0 828 95" fill="none" xmlns="http://www.w3.org/2000/svg">
<path d="M5.808 84.32V10.08C5.808 6.62399 4.272 4.064 0.688 3.67999V2.39999H40.24V3.67999C36.784 3.936 35.12 6.752 35.12 10.08V84.832C35.12 88.032 37.04 90.464 40.368 90.72V92H26.16V90.72C29.616 90.336 31.28 87.52 31.28 84.32V3.67999H9.648V84.32C9.648 87.648 11.312 90.336 14.768 90.72V92H0.688V90.72C4.144 90.464 5.808 87.648 5.808 84.32ZM129.529 47.072C129.401 20.704 113.145 1.376 87.673 1.376C62.073 1.376 45.561 20.704 45.433 47.2C45.305 74.08 62.073 93.408 87.545 93.408C113.145 93.408 129.657 73.568 129.529 47.072ZM134.649 47.2C134.777 73.44 114.041 94.688 87.545 94.688C60.921 94.688 40.313 73.44 40.313 47.2C40.313 20.832 61.305 0.095993 87.673 0.095993C113.913 0.095993 134.521 20.96 134.649 47.2ZM190.923 90.72V92H178.123V90.72C181.707 90.464 181.835 87.52 181.067 84.576L161.611 13.536L135.755 92H128.203V90.72C131.659 90.336 134.475 88.16 135.883 85.088L160.971 11.36C160.075 7.904 159.307 4.31999 150.859 3.67999V2.39999C153.163 2.39999 155.339 2.39999 157.131 2.39999C160.459 2.39999 162.123 2.144 163.019 5.088L164.811 11.36L184.651 84.32C185.931 87.264 187.339 90.336 190.923 90.72ZM196.313 2.39999H221.785C225.113 2.52799 225.625 2.656 226.393 4.96L229.593 13.92L228.569 14.304C223.577 8.032 221.017 3.808 216.793 3.67999H205.273V90.72H216.793C221.017 90.592 223.705 86.24 228.697 79.84L229.593 80.48L226.393 89.568C225.625 91.744 225.241 91.872 221.913 92H196.313V90.72C199.897 90.464 201.433 87.776 201.433 84.32V10.08C201.433 6.62399 199.897 3.936 196.313 3.67999V2.39999ZM208.089 31.84H209.113C211.417 31.84 213.465 31.84 215.257 31.84C218.713 31.84 220.121 31.584 221.145 34.528L223.193 40.8L222.041 41.184C220.121 37.984 217.561 33.76 209.113 33.12H208.089V31.84ZM235.965 13.408L234.813 13.024C235.453 10.848 236.093 8.8 236.605 7.13599C237.629 3.936 237.757 2.39999 240.829 2.39999C243.389 2.39999 245.949 2.272 248.509 2.272C260.669 2.272 266.173 8.41599 266.173 17.376C266.173 25.568 260.669 30.688 254.269 32.352C268.349 34.784 278.717 46.944 278.717 61.792C278.717 78.432 265.661 93.792 247.741 92C245.181 91.616 238.525 91.232 232.125 87.008L232.509 85.984C239.421 90.336 244.797 90.592 249.149 90.592C259.389 90.592 274.877 84.96 274.877 61.792C274.877 44.896 265.149 33.12 249.021 33.12C247.613 33.12 246.333 33.12 244.925 33.12V31.84H248.765C257.725 31.712 262.461 26.208 262.461 17.888C262.461 8.544 256.189 3.67999 247.229 3.67999C246.845 3.67999 246.461 3.67999 245.949 3.67999C242.493 4.70399 239.037 5.728 235.965 13.408ZM279.685 90.72C283.141 90.336 284.933 87.648 284.933 84.32V10.08C284.933 6.752 283.397 3.936 279.813 3.67999V2.39999H293.893V3.67999C290.309 4.064 288.773 6.62399 288.773 10.08V31.84H310.533V10.08C310.533 6.752 308.997 3.936 305.413 3.67999V2.39999H319.493V3.67999C315.909 4.064 314.373 6.62399 314.373 10.08V85.472C314.373 88.544 316.421 90.464 319.621 90.72V92H305.413V90.72C308.229 90.464 310.533 88.416 310.533 85.472V33.12H288.773V84.32C288.773 87.52 290.565 90.336 293.893 90.72V92H279.685V90.72ZM343.245 92H324.685C324.685 91.872 324.685 90.848 324.685 90.592C328.269 90.336 329.805 87.776 329.805 84.32V8.92799C329.805 5.728 327.885 3.936 324.813 3.67999V2.39999H338.765V3.67999C335.181 3.936 333.645 5.728 333.645 8.8V31.84H342.989C359.757 31.84 372.813 45.024 372.941 61.792C372.941 78.432 360.013 91.744 343.245 92ZM388.685 92H374.605V90.72C378.189 90.464 379.725 87.776 379.725 84.32V9.824C379.725 6.49599 378.061 4.064 374.605 3.67999V2.39999H388.685V3.67999C385.101 3.936 383.565 6.62399 383.565 10.08V84.32C383.565 87.776 385.101 90.464 388.685 90.72V92ZM369.101 61.792C368.973 44.896 359.245 33.12 342.989 33.12H333.645V90.72H342.989C359.245 90.72 369.101 78.56 369.101 61.792ZM393.938 2.39999H419.41C422.738 2.52799 423.25 2.656 424.018 4.96L427.218 13.92L426.194 14.304C421.202 8.032 418.642 3.808 414.418 3.67999H402.898V90.72H414.418C418.642 90.592 421.33 86.24 426.322 79.84L427.218 80.48L424.018 89.568C423.25 91.744 422.866 91.872 419.538 92H393.938V90.72C397.522 90.464 399.058 87.776 399.058 84.32V10.08C399.058 6.62399 397.522 3.936 393.938 3.67999V2.39999ZM405.714 31.84H406.738C409.042 31.84 411.09 31.84 412.882 31.84C416.338 31.84 417.746 31.584 418.77 34.528L420.818 40.8L419.666 41.184C417.746 37.984 415.186 33.76 406.738 33.12H405.714V31.84ZM511.798 0.095993C532.534 0.095993 548.022 9.952 553.91 21.6C556.854 27.488 558.518 29.92 557.494 31.2L552.246 39.136L551.478 38.24C553.014 32.608 554.678 27.872 554.038 26.08C548.918 12.128 534.198 1.376 511.798 1.376C486.326 1.376 469.686 20.704 469.558 47.2C469.43 74.08 486.198 93.408 511.67 93.408C538.55 93.408 552.63 79.2 556.214 60.768H557.75C553.91 81.12 537.782 94.688 511.67 94.688C485.046 94.688 464.438 73.44 464.438 47.2C464.438 20.832 485.43 0.095993 511.798 0.095993ZM583.668 84.32V3.67999H575.732C571.636 3.936 569.332 7.64799 564.34 13.92H563.188L566.26 4.96C567.028 2.656 567.412 2.52799 570.868 2.39999H600.308C603.764 2.52799 604.02 2.656 604.788 4.96L607.988 13.92H606.708C601.716 7.64799 599.54 3.808 595.316 3.67999H587.508V84.32C587.508 87.776 589.044 90.336 592.628 90.72V92H578.548V90.72C582.132 90.464 583.668 87.776 583.668 84.32ZM613.06 92V90.72C617.284 90.336 618.948 88.288 620.356 84.32L643.524 13.408L643.012 11.616C641.988 8.672 641.092 4.31999 632.644 3.67999V2.39999C635.076 2.39999 637.508 2.39999 639.94 2.39999C642.628 2.39999 643.908 2.39999 644.804 5.088L670.66 84.32C671.94 87.392 673.476 90.336 677.06 90.72V92H664.26V90.72C667.716 90.464 668.356 88.672 667.076 84.704C662.852 71.904 658.5 58.848 654.276 45.92H634.436L622.02 84.32C621.508 85.856 620.356 90.336 624.452 90.72V92H613.06ZM634.82 44.64H653.892C650.692 34.784 647.364 25.056 644.292 15.328L634.82 44.64ZM702.793 84.32V3.67999H694.857C690.761 3.936 688.457 7.64799 683.465 13.92H682.313L685.385 4.96C686.153 2.656 686.537 2.52799 689.993 2.39999H719.433C722.889 2.52799 723.145 2.656 723.913 4.96L727.113 13.92H725.833C720.841 7.64799 718.665 3.808 714.441 3.67999H706.633V84.32C706.633 87.776 708.169 90.336 711.753 90.72V92H697.673V90.72C701.257 90.464 702.793 87.776 702.793 84.32ZM737.305 84.32V10.08C737.305 6.62399 735.897 3.936 732.313 3.67999V2.39999H746.265V3.67999C742.681 3.936 741.145 6.752 741.145 10.08V31.84H750.745C767.513 31.84 780.313 45.024 780.441 61.792C780.441 78.56 767.641 92 750.745 92H739.865H732.185V90.72C735.769 90.336 737.305 87.648 737.305 84.32ZM776.601 61.792C776.473 44.896 767.001 33.12 750.745 33.12H741.145V90.72H750.745C767.129 90.72 776.601 78.56 776.601 61.792ZM789.898 79.328L818.058 11.36V10.08C818.058 6.62399 816.65 3.936 813.066 3.67999V2.39999H827.018V3.67999C823.434 3.936 822.026 6.49599 821.898 9.824V84.32C821.898 87.776 823.562 90.336 827.018 90.72V92H812.938V90.72C816.65 90.464 818.058 87.904 818.058 84.32V15.2L789.898 83.04V84.96C789.898 88.032 791.69 90.464 795.018 90.72V92H780.938V90.72C784.65 90.464 786.058 88.032 786.058 84.448V9.696C786.058 6.368 784.522 3.936 781.066 3.67999V2.39999H795.018V3.67999C791.434 3.936 789.898 6.62399 789.898 10.08V79.328Z" fill="white" fill-opacity="0.2"/>
</svg>
