<svg width="577" height="95" viewBox="0 0 577 95" fill="none" xmlns="http://www.w3.org/2000/svg">
<path d="M5.808 84.32V10.08C5.808 6.62399 4.272 4.064 0.688 3.67999V2.39999H40.24V3.67999C36.784 3.936 35.12 6.752 35.12 10.08V84.832C35.12 88.032 37.04 90.464 40.368 90.72V92H26.16V90.72C29.616 90.336 31.28 87.52 31.28 84.32V3.67999H9.648V84.32C9.648 87.648 11.312 90.336 14.768 90.72V92H0.688V90.72C4.144 90.464 5.808 87.648 5.808 84.32ZM129.529 47.072C129.401 20.704 113.145 1.376 87.673 1.376C62.073 1.376 45.561 20.704 45.433 47.2C45.305 74.08 62.073 93.408 87.545 93.408C113.145 93.408 129.657 73.568 129.529 47.072ZM134.649 47.2C134.777 73.44 114.041 94.688 87.545 94.688C60.921 94.688 40.313 73.44 40.313 47.2C40.313 20.832 61.305 0.095993 87.673 0.095993C113.913 0.095993 134.521 20.96 134.649 47.2ZM135.938 3.67999V2.39999H153.986C163.714 2.52799 171.65 8.41599 171.65 16.352C171.65 25.056 164.738 33.12 154.498 33.12H144.898V84.32C144.898 87.904 146.178 90.336 149.89 90.72V92H135.81V90.72C139.522 90.336 141.058 87.904 141.058 84.32V9.952V10.08C141.058 6.752 139.522 3.936 135.938 3.67999ZM153.986 3.67999H144.898V31.84H153.986C162.818 31.84 167.938 25.312 167.938 16.48C168.066 9.824 161.794 3.67999 153.986 3.67999ZM195.668 84.32V3.67999H187.732C183.636 3.936 181.332 7.64799 176.34 13.92H175.188L178.26 4.96C179.028 2.656 179.412 2.52799 182.868 2.39999H212.308C215.764 2.52799 216.02 2.656 216.788 4.96L219.988 13.92H218.708C213.716 7.64799 211.54 3.808 207.316 3.67999H199.508V84.32C199.508 87.776 201.044 90.336 204.628 90.72V92H190.548V90.72C194.132 90.464 195.668 87.776 195.668 84.32ZM251.527 7.392H260.615C271.367 7.52 278.151 12.768 278.151 21.472C278.151 31.456 269.831 37.984 260.999 38.24H251.527V84.448C251.527 87.776 253.063 90.336 256.647 90.72V92H242.567V90.72C246.151 90.336 247.687 87.776 247.687 84.32V38.24H238.087C227.847 37.984 220.935 30.176 220.935 21.472C220.935 13.536 228.871 7.52 238.599 7.392H247.687C247.687 5.088 246.151 3.936 242.567 3.67999V2.39999H256.647V3.67999C253.063 3.936 251.527 5.088 251.527 7.392ZM247.687 36.96V8.8H238.599C230.791 8.8 224.519 14.944 224.647 21.6C224.647 30.432 229.767 36.96 238.471 36.96H247.687ZM260.615 8.8H251.527V36.96H260.743C270.855 36.96 274.439 30.432 274.439 21.6C274.567 14.944 270.855 8.8 260.615 8.8ZM367.404 47.072C367.276 20.704 351.02 1.376 325.548 1.376C299.948 1.376 283.436 20.704 283.308 47.2C283.18 74.08 299.948 93.408 325.42 93.408C351.02 93.408 367.532 73.568 367.404 47.072ZM372.524 47.2C372.652 73.44 351.916 94.688 325.42 94.688C298.796 94.688 278.188 73.44 278.188 47.2C278.188 20.832 299.18 0.095993 325.548 0.095993C351.788 0.095993 372.396 20.96 372.524 47.2ZM428.798 90.72V92H415.998V90.72C419.582 90.464 419.71 87.52 418.942 84.576L399.486 13.536L373.63 92H366.078V90.72C369.534 90.336 372.35 88.16 373.758 85.088L398.846 11.36C397.95 7.904 397.182 4.31999 388.734 3.67999V2.39999C391.038 2.39999 393.214 2.39999 395.006 2.39999C398.334 2.39999 399.998 2.144 400.894 5.088L402.686 11.36L422.526 84.32C423.806 87.264 425.214 90.336 428.798 90.72ZM443.148 79.328L471.308 11.36V10.08C471.308 6.62399 469.9 3.936 466.316 3.67999V2.39999H480.268V3.67999C476.684 3.936 475.276 6.49599 475.148 9.824V84.32C475.148 87.776 476.812 90.336 480.268 90.72V92H466.188V90.72C469.9 90.464 471.308 87.904 471.308 84.32V15.2L443.148 83.04V84.96C443.148 88.032 444.94 90.464 448.268 90.72V92H434.188V90.72C437.9 90.464 439.308 88.032 439.308 84.448V9.696C439.308 6.368 437.772 3.936 434.316 3.67999V2.39999H448.268V3.67999C444.684 3.936 443.148 6.62399 443.148 10.08V79.328ZM571.279 47.072C571.151 20.704 554.895 1.376 529.423 1.376C503.823 1.376 487.311 20.704 487.183 47.2C487.055 74.08 503.823 93.408 529.295 93.408C554.895 93.408 571.407 73.568 571.279 47.072ZM576.399 47.2C576.527 73.44 555.791 94.688 529.295 94.688C502.671 94.688 482.063 73.44 482.063 47.2C482.063 20.832 503.055 0.095993 529.423 0.095993C555.663 0.095993 576.271 20.96 576.399 47.2Z" fill="white" fill-opacity="0.2"/>
</svg>
